HIERARCHY
ROOT Hips
{
 OFFSET 0.000000 0.000000 0.000000
 CHANNELS 6 Xposition Yposition Zposition Yrotation Xrotation Zrotation
 JOINT Chest
 {
  OFFSET 0.000000 9.585900 0.002600
  CHANNELS 3 Yrotation Xrotation Zrotation
  JOINT Chest2
  {
   OFFSET 0.000000 9.601200 -0.005300
   CHANNELS 3 Yrotation Xrotation Zrotation
   JOINT Chest3
   {
    OFFSET 0.000000 9.561800 0.000000
    CHANNELS 3 Yrotation Xrotation Zrotation
    JOINT Chest4
    {
     OFFSET 0.000000 9.552100 0.000000
     CHANNELS 3 Yrotation Xrotation Zrotation
     JOINT Neck
     {
      OFFSET 0.000000 14.453000 0.000000
      CHANNELS 3 Yrotation Xrotation Zrotation
      JOINT Head
      {
       OFFSET 0.000000 8.936500 -0.011300
       CHANNELS 3 Yrotation Xrotation Zrotation
       End Site
       {
        OFFSET 0.000000 17.073600 -0.006000
       }
      }
     }
     JOINT RightCollar
     {
      OFFSET -2.921100 9.558500 0.000000
      CHANNELS 3 Yrotation Xrotation Zrotation
      JOINT RightShoulder
      {
       OFFSET -13.519700 0.000000 0.000000
       CHANNELS 3 Yrotation Xrotation Zrotation
       JOINT RightElbow
       {
        OFFSET 0.000000 -29.696600 0.000000
        CHANNELS 3 Yrotation Xrotation Zrotation
        JOINT RightWrist
        {
         OFFSET 0.000000 -24.004700 0.000000
         CHANNELS 3 Yrotation Xrotation Zrotation
         End Site
         {
          OFFSET 0.000000 -17.728500 0.000000
         }
        }
       }
      }
     }
     JOINT LeftCollar
     {
      OFFSET 2.921100 9.558500 0.000000
      CHANNELS 3 Yrotation Xrotation Zrotation
      JOINT LeftShoulder
      {
       OFFSET 13.519700 0.000000 0.000000
       CHANNELS 3 Yrotation Xrotation Zrotation
       JOINT LeftElbow
       {
        OFFSET 0.000000 -29.696600 0.000000
        CHANNELS 3 Yrotation Xrotation Zrotation
        JOINT LeftWrist
        {
         OFFSET 0.000000 -24.004700 0.000000
         CHANNELS 3 Yrotation Xrotation Zrotation
         End Site
         {
          OFFSET 0.000000 -17.728500 0.000000
         }
        }
       }
      }
     }
    }
   }
  }
 }
 JOINT RightHip
 {
  OFFSET -7.771700 -0.012900 -0.001300
  CHANNELS 3 Yrotation Xrotation Zrotation
  JOINT RightKnee
  {
   OFFSET 0.000000 -40.869800 0.001200
   CHANNELS 3 Yrotation Xrotation Zrotation
   JOINT RightAnkle
   {
    OFFSET 0.000000 -39.717900 0.002100
    CHANNELS 3 Yrotation Xrotation Zrotation
    JOINT RightToe
    {
     OFFSET 0.000000 -4.965400 11.033500
     CHANNELS 3 Yrotation Xrotation Zrotation
     End Site
     {
      OFFSET 0.000000 -1.423100 5.872300
     }
    }
   }
  }
 }
 JOINT LeftHip
 {
  OFFSET 7.771700 -0.012900 -0.001300
  CHANNELS 3 Yrotation Xrotation Zrotation
  JOINT LeftKnee
  {
   OFFSET 0.000000 -40.869800 0.001200
   CHANNELS 3 Yrotation Xrotation Zrotation
   JOINT LeftAnkle
   {
    OFFSET 0.000000 -39.717900 0.002100
    CHANNELS 3 Yrotation Xrotation Zrotation
    JOINT LeftToe
    {
     OFFSET 0.000000 -4.965400 11.033500
     CHANNELS 3 Yrotation Xrotation Zrotation
     End Site
     {
      OFFSET 0.000000 -1.423100 5.872300
     }
    }
   }
  }
 }
}
MOTION
Frames: 5
Frame Time: 0.008333
0.000000 85.388000 0.000000 0.000000 -5.767877 0.000000 0.000000 11.653817 0.000000 0.000000 -5.885947 0.000000 0.000000 -0.000000 0.000000 0.000000 -0.000000 0.000000 0.000000 12.528835 0.000000 0.000000 0.711642 0.000000 0.000000 -0.000000 0.000000 0.000000 0.000000 -90.000000 0.000000 -2.309062 0.000000 0.000000 2.309062 0.000000 0.000000 -0.000000 0.000000 0.000000 -0.000000 90.000000 0.000000 -2.309062 0.000000 0.000000 2.309062 0.000000 0.000000 8.520406 0.000000 0.000000 1.905762 0.000000 -0.000000 -4.658285 0.000000 0.000000 -0.000000 0.000000 0.000000 8.520406 0.000000 0.000000 1.905762 0.000000 -0.000000 -4.658285 0.000000 0.000000 -0.000000 0.000000
-16.491837 52.762512 10.933535 -177.606710 -21.181246 -2.170329 -0.466956 17.735601 0.878816 -0.080181 1.975608 0.123016 -0.071064 3.193718 0.169507 -0.360912 15.554644 0.849144 0.409394 15.540175 -4.878436 1.556323 -9.305452 -5.290304 1.605656 1.214201 0.970828 7.848361 -12.526555 -7.462983 -89.769043 -71.893326 128.099184 -9.022184 -31.872376 -16.790334 -5.662201 1.407323 -0.167872 -0.644932 -13.400057 8.141774 70.829981 -55.859818 -114.340826 5.715364 -16.410269 12.439095 1.644483 -57.405227 10.930263 -177.920488 85.911261 -179.279859 -12.632971 -23.192323 11.980203 0.013347 -0.033842 -0.128227 3.457733 -56.472302 -2.699266 121.082241 77.603824 119.234189 -6.308044 -18.760527 -1.682809 -0.009763 0.029229 -0.010476
-16.498324 52.762093 10.935810 -177.594535 -21.166244 -2.145572 -0.467200 17.691555 0.843945 -0.059771 1.947143 0.111732 -0.082963 3.208555 0.177578 -0.338253 15.537345 0.841587 0.371397 15.533053 -4.866333 1.512829 -9.314261 -5.267666 1.561252 1.119224 1.015846 7.840790 -12.393883 -7.448528 -89.545732 -71.853661 127.911787 -9.043543 -31.857976 -16.777410 -5.678748 1.312635 -0.137884 -0.663948 -13.281947 8.188845 70.696031 -55.818819 -114.271383 5.744731 -16.396714 12.425090 1.674604 -57.425314 10.888212 -177.509861 85.910108 -178.855990 -12.786805 -23.154380 12.004184 0.006910 -0.036225 -0.088253 3.494851 -56.483774 -2.759466 121.062718 77.604787 119.216563 -6.309967 -18.767966 -1.683423 -0.005502 0.041222 -0.006690
-16.501830 52.763038 10.934789 -177.599540 -21.169547 -2.133793 -0.445573 17.662618 0.830121 -0.073006 1.970555 0.117847 -0.075177 3.194623 0.173631 -0.305455 15.491209 0.826268 0.335298 15.566533 -4.843337 1.464437 -9.354970 -5.266152 1.514184 1.023414 1.060661 7.824123 -12.269742 -7.430603 -89.252736 -71.811049 127.665894 -9.147299 -31.830088 -16.741102 -5.696587 1.224449 -0.106672 -0.657308 -13.210468 8.290087 70.497250 -55.705503 -114.163987 5.753324 -16.409544 12.435946 1.681955 -57.427271 10.911022 -176.880046 85.912593 -178.190087 -13.050035 -23.109312 12.029927 -0.007018 -0.033142 -0.052439 3.515814 -56.479246 -2.779042 121.057409 77.606060 119.208283 -6.310972 -18.762016 -1.679454 -0.005341 0.036340 -0.006357
-16.500805 52.765410 10.930125 -177.624938 -21.192064 -2.142067 -0.395993 17.650233 0.845097 -0.070148 1.966394 0.116558 -0.083158 3.208733 0.177969 -0.274312 15.436317 0.810485 0.293343 15.550644 -4.848332 1.422023 -9.336417 -5.245872 1.463185 0.931316 1.104306 7.813280 -12.190156 -7.408380 -88.879692 -71.790302 127.321038 -9.239189 -31.814243 -16.708258 -5.715917 1.144307 -0.075507 -0.665113 -13.097467 8.341847 70.350642 -55.658256 -114.092146 5.764817 -16.416318 12.444672 1.672651 -57.403631 10.951389 -176.674785 85.912607 -177.976957 -13.039657 -23.094632 12.013815 -0.010205 -0.041115 -0.038694 3.515053 -56.454836 -2.749574 121.068174 77.613183 119.219099 -6.299378 -18.751655 -1.677102 -0.007495 0.024678 -0.007476
